# xmcd
#
# Track frame offsets: 
#        150
#        13397
#        27799
#        40311
#        62821
#        75483
#        89728
#        107153
#        118923
#        132343
#        146153
#        163218
#        178678
#        199928
#        214308
#        236330
#
# Disc length: 3343 seconds
#
# Revision: 0
# Processed by: cddbd v1.5.2PL0 Copyright (c) Steve Scherf et al.
# Submitted via: ExactAudioCopy v1.0b4
#
DISCID=f10d0d10
DTITLE=Charles Burton Blues Band - Everybody's Talkin'
DYEAR=2008
DGENRE=Blues, Electric Blues
TTITLE0=Fat, Dumb And Happy
TTITLE1=Black Market Woman
TTITLE2=Baby's Got It Bad
TTITLE3=Still Get Together
TTITLE4=Pop The Trunk
TTITLE5=Hook, Line And Sinker
TTITLE6=Tiki
TTITLE7=Love That GuitarHeavy
TTITLE8=Hearted Blues
TTITLE9=Love You Baby
TTITLE10=Swamp Rat
TTITLE11=Get Back What You Give
TTITLE12=Little Jennifer
TTITLE13=Trouble Head
TTITLE14=Everybody's Talkin'
TTITLE15=The Old Fashioned Way
EXTD=
EXTT0=
EXTT1=
EXTT2=
EXTT3=
EXTT4=
EXTT5=
EXTT6=
EXTT7=
EXTT8=
EXTT9=
EXTT10=
EXTT11=
EXTT12=
EXTT13=
EXTT14=
EXTT15=
PLAYORDER=
